<?xml version="1.0" encoding="utf-8" standalone="no"?>
<!DOCTYPE svg PUBLIC "-//W3C//DTD SVG 1.1//EN"
  "http://www.w3.org/Graphics/SVG/1.1/DTD/svg11.dtd">
<svg xmlns:xlink="http://www.w3.org/1999/xlink" width="864pt" height="432pt" viewBox="0 0 864 432" xmlns="http://www.w3.org/2000/svg" version="1.1">
 <metadata>
  <rdf:RDF xmlns:dc="http://purl.org/dc/elements/1.1/" xmlns:cc="http://creativecommons.org/ns#" xmlns:rdf="http://www.w3.org/1999/02/22-rdf-syntax-ns#">
   <cc:Work>
    <dc:type rdf:resource="http://purl.org/dc/dcmitype/StillImage"/>
    <dc:date>2024-08-20T15:01:50.790189</dc:date>
    <dc:format>image/svg+xml</dc:format>
    <dc:creator>
     <cc:Agent>
      <dc:title>Matplotlib v3.9.1, https://matplotlib.org/</dc:title>
     </cc:Agent>
    </dc:creator>
   </cc:Work>
  </rdf:RDF>
 </metadata>
 <defs>
  <style type="text/css">*{stroke-linejoin: round; stroke-linecap: butt}</style>
 </defs>
 <g id="figure_1">
  <g id="patch_1">
   <path d="M 0 432 
L 864 432 
L 864 0 
L 0 0 
z
" style="fill: #ffffff"/>
  </g>
  <g id="axes_1">
   <g id="patch_2">
    <path d="M 108 384.48 
L 777.6 384.48 
L 777.6 51.84 
L 108 51.84 
z
" style="fill: #ffffff"/>
   </g>
   <g id="matplotlib.axis_1">
    <g id="xtick_1">
     <g id="line2d_1">
      <path d="M 138.436364 384.48 
L 138.436364 51.84 
" clip-path="url(#p9a30205e4f)" style="fill: none; stroke: #b0b0b0; stroke-width: 0.8; stroke-linecap: square"/>
     </g>
     <g id="line2d_2">
      <defs>
       <path id="m119faa782e" d="M 0 0 
L 0 3.5 
" style="stroke: #000000; stroke-width: 0.8"/>
      </defs>
      <g>
       <use xlink:href="#m119faa782e" x="138.436364" y="384.48" style="stroke: #000000; stroke-width: 0.8"/>
      </g>
     </g>
     <g id="text_1">
      <!-- 1_100 -->
      <g transform="translate(129.461079 418.25946) rotate(-45) scale(0.1 -0.1)">
       <defs>
        <path id="DejaVuSans-31" d="M 794 531 
L 1825 531 
L 1825 4091 
L 703 3866 
L 703 4441 
L 1819 4666 
L 2450 4666 
L 2450 531 
L 3481 531 
L 3481 0 
L 794 0 
L 794 531 
z
" transform="scale(0.015625)"/>
        <path id="DejaVuSans-5f" d="M 3263 -1063 
L 3263 -1509 
L -63 -1509 
L -63 -1063 
L 3263 -1063 
z
" transform="scale(0.015625)"/>
        <path id="DejaVuSans-30" d="M 2034 4250 
Q 1547 4250 1301 3770 
Q 1056 3291 1056 2328 
Q 1056 1369 1301 889 
Q 1547 409 2034 409 
Q 2525 409 2770 889 
Q 3016 1369 3016 2328 
Q 3016 3291 2770 3770 
Q 2525 4250 2034 4250 
z
M 2034 4750 
Q 2819 4750 3233 4129 
Q 3647 3509 3647 2328 
Q 3647 1150 3233 529 
Q 2819 -91 2034 -91 
Q 1250 -91 836 529 
Q 422 1150 422 2328 
Q 422 3509 836 4129 
Q 1250 4750 2034 4750 
z
" transform="scale(0.015625)"/>
       </defs>
       <use xlink:href="#DejaVuSans-31"/>
       <use xlink:href="#DejaVuSans-5f" x="63.623047"/>
       <use xlink:href="#DejaVuSans-31" x="113.623047"/>
       <use xlink:href="#DejaVuSans-30" x="177.246094"/>
       <use xlink:href="#DejaVuSans-30" x="240.869141"/>
      </g>
     </g>
    </g>
    <g id="xtick_2">
     <g id="line2d_3">
      <path d="M 193.775207 384.48 
L 193.775207 51.84 
" clip-path="url(#p9a30205e4f)" style="fill: none; stroke: #b0b0b0; stroke-width: 0.8; stroke-linecap: square"/>
     </g>
     <g id="line2d_4">
      <g>
       <use xlink:href="#m119faa782e" x="193.775207" y="384.48" style="stroke: #000000; stroke-width: 0.8"/>
      </g>
     </g>
     <g id="text_2">
      <!-- 1_200 -->
      <g transform="translate(184.799922 418.25946) rotate(-45) scale(0.1 -0.1)">
       <defs>
        <path id="DejaVuSans-32" d="M 1228 531 
L 3431 531 
L 3431 0 
L 469 0 
L 469 531 
Q 828 903 1448 1529 
Q 2069 2156 2228 2338 
Q 2531 2678 2651 2914 
Q 2772 3150 2772 3378 
Q 2772 3750 2511 3984 
Q 2250 4219 1831 4219 
Q 1534 4219 1204 4116 
Q 875 4013 500 3803 
L 500 4441 
Q 881 4594 1212 4672 
Q 1544 4750 1819 4750 
Q 2544 4750 2975 4387 
Q 3406 4025 3406 3419 
Q 3406 3131 3298 2873 
Q 3191 2616 2906 2266 
Q 2828 2175 2409 1742 
Q 1991 1309 1228 531 
z
" transform="scale(0.015625)"/>
       </defs>
       <use xlink:href="#DejaVuSans-31"/>
       <use xlink:href="#DejaVuSans-5f" x="63.623047"/>
       <use xlink:href="#DejaVuSans-32" x="113.623047"/>
       <use xlink:href="#DejaVuSans-30" x="177.246094"/>
       <use xlink:href="#DejaVuSans-30" x="240.869141"/>
      </g>
     </g>
    </g>
    <g id="xtick_3">
     <g id="line2d_5">
      <path d="M 249.11405 384.48 
L 249.11405 51.84 
" clip-path="url(#p9a30205e4f)" style="fill: none; stroke: #b0b0b0; stroke-width: 0.8; stroke-linecap: square"/>
     </g>
     <g id="line2d_6">
      <g>
       <use xlink:href="#m119faa782e" x="249.11405" y="384.48" style="stroke: #000000; stroke-width: 0.8"/>
      </g>
     </g>
     <g id="text_3">
      <!-- 2_100 -->
      <g transform="translate(240.138765 418.25946) rotate(-45) scale(0.1 -0.1)">
       <use xlink:href="#DejaVuSans-32"/>
       <use xlink:href="#DejaVuSans-5f" x="63.623047"/>
       <use xlink:href="#DejaVuSans-31" x="113.623047"/>
       <use xlink:href="#DejaVuSans-30" x="177.246094"/>
       <use xlink:href="#DejaVuSans-30" x="240.869141"/>
      </g>
     </g>
    </g>
    <g id="xtick_4">
     <g id="line2d_7">
      <path d="M 304.452893 384.48 
L 304.452893 51.84 
" clip-path="url(#p9a30205e4f)" style="fill: none; stroke: #b0b0b0; stroke-width: 0.8; stroke-linecap: square"/>
     </g>
     <g id="line2d_8">
      <g>
       <use xlink:href="#m119faa782e" x="304.452893" y="384.48" style="stroke: #000000; stroke-width: 0.8"/>
      </g>
     </g>
     <g id="text_4">
      <!-- 2_200 -->
      <g transform="translate(295.477608 418.25946) rotate(-45) scale(0.1 -0.1)">
       <use xlink:href="#DejaVuSans-32"/>
       <use xlink:href="#DejaVuSans-5f" x="63.623047"/>
       <use xlink:href="#DejaVuSans-32" x="113.623047"/>
       <use xlink:href="#DejaVuSans-30" x="177.246094"/>
       <use xlink:href="#DejaVuSans-30" x="240.869141"/>
      </g>
     </g>
    </g>
    <g id="xtick_5">
     <g id="line2d_9">
      <path d="M 359.791736 384.48 
L 359.791736 51.84 
" clip-path="url(#p9a30205e4f)" style="fill: none; stroke: #b0b0b0; stroke-width: 0.8; stroke-linecap: square"/>
     </g>
     <g id="line2d_10">
      <g>
       <use xlink:href="#m119faa782e" x="359.791736" y="384.48" style="stroke: #000000; stroke-width: 0.8"/>
      </g>
     </g>
     <g id="text_5">
      <!-- 3_100 -->
      <g transform="translate(350.816451 418.25946) rotate(-45) scale(0.1 -0.1)">
       <defs>
        <path id="DejaVuSans-33" d="M 2597 2516 
Q 3050 2419 3304 2112 
Q 3559 1806 3559 1356 
Q 3559 666 3084 287 
Q 2609 -91 1734 -91 
Q 1441 -91 1130 -33 
Q 819 25 488 141 
L 488 750 
Q 750 597 1062 519 
Q 1375 441 1716 441 
Q 2309 441 2620 675 
Q 2931 909 2931 1356 
Q 2931 1769 2642 2001 
Q 2353 2234 1838 2234 
L 1294 2234 
L 1294 2753 
L 1863 2753 
Q 2328 2753 2575 2939 
Q 2822 3125 2822 3475 
Q 2822 3834 2567 4026 
Q 2313 4219 1838 4219 
Q 1578 4219 1281 4162 
Q 984 4106 628 3988 
L 628 4550 
Q 988 4650 1302 4700 
Q 1616 4750 1894 4750 
Q 2613 4750 3031 4423 
Q 3450 4097 3450 3541 
Q 3450 3153 3228 2886 
Q 3006 2619 2597 2516 
z
" transform="scale(0.015625)"/>
       </defs>
       <use xlink:href="#DejaVuSans-33"/>
       <use xlink:href="#DejaVuSans-5f" x="63.623047"/>
       <use xlink:href="#DejaVuSans-31" x="113.623047"/>
       <use xlink:href="#DejaVuSans-30" x="177.246094"/>
       <use xlink:href="#DejaVuSans-30" x="240.869141"/>
      </g>
     </g>
    </g>
    <g id="xtick_6">
     <g id="line2d_11">
      <path d="M 415.130579 384.48 
L 415.130579 51.84 
" clip-path="url(#p9a30205e4f)" style="fill: none; stroke: #b0b0b0; stroke-width: 0.8; stroke-linecap: square"/>
     </g>
     <g id="line2d_12">
      <g>
       <use xlink:href="#m119faa782e" x="415.130579" y="384.48" style="stroke: #000000; stroke-width: 0.8"/>
      </g>
     </g>
     <g id="text_6">
      <!-- 3_200 -->
      <g transform="translate(406.155294 418.25946) rotate(-45) scale(0.1 -0.1)">
       <use xlink:href="#DejaVuSans-33"/>
       <use xlink:href="#DejaVuSans-5f" x="63.623047"/>
       <use xlink:href="#DejaVuSans-32" x="113.623047"/>
       <use xlink:href="#DejaVuSans-30" x="177.246094"/>
       <use xlink:href="#DejaVuSans-30" x="240.869141"/>
      </g>
     </g>
    </g>
    <g id="xtick_7">
     <g id="line2d_13">
      <path d="M 470.469421 384.48 
L 470.469421 51.84 
" clip-path="url(#p9a30205e4f)" style="fill: none; stroke: #b0b0b0; stroke-width: 0.8; stroke-linecap: square"/>
     </g>
     <g id="line2d_14">
      <g>
       <use xlink:href="#m119faa782e" x="470.469421" y="384.48" style="stroke: #000000; stroke-width: 0.8"/>
      </g>
     </g>
     <g id="text_7">
      <!-- 4_100 -->
      <g transform="translate(461.494137 418.25946) rotate(-45) scale(0.1 -0.1)">
       <defs>
        <path id="DejaVuSans-34" d="M 2419 4116 
L 825 1625 
L 2419 1625 
L 2419 4116 
z
M 2253 4666 
L 3047 4666 
L 3047 1625 
L 3713 1625 
L 3713 1100 
L 3047 1100 
L 3047 0 
L 2419 0 
L 2419 1100 
L 313 1100 
L 313 1709 
L 2253 4666 
z
" transform="scale(0.015625)"/>
       </defs>
       <use xlink:href="#DejaVuSans-34"/>
       <use xlink:href="#DejaVuSans-5f" x="63.623047"/>
       <use xlink:href="#DejaVuSans-31" x="113.623047"/>
       <use xlink:href="#DejaVuSans-30" x="177.246094"/>
       <use xlink:href="#DejaVuSans-30" x="240.869141"/>
      </g>
     </g>
    </g>
    <g id="xtick_8">
     <g id="line2d_15">
      <path d="M 525.808264 384.48 
L 525.808264 51.84 
" clip-path="url(#p9a30205e4f)" style="fill: none; stroke: #b0b0b0; stroke-width: 0.8; stroke-linecap: square"/>
     </g>
     <g id="line2d_16">
      <g>
       <use xlink:href="#m119faa782e" x="525.808264" y="384.48" style="stroke: #000000; stroke-width: 0.8"/>
      </g>
     </g>
     <g id="text_8">
      <!-- 4_200 -->
      <g transform="translate(516.83298 418.25946) rotate(-45) scale(0.1 -0.1)">
       <use xlink:href="#DejaVuSans-34"/>
       <use xlink:href="#DejaVuSans-5f" x="63.623047"/>
       <use xlink:href="#DejaVuSans-32" x="113.623047"/>
       <use xlink:href="#DejaVuSans-30" x="177.246094"/>
       <use xlink:href="#DejaVuSans-30" x="240.869141"/>
      </g>
     </g>
    </g>
    <g id="xtick_9">
     <g id="line2d_17">
      <path d="M 581.147107 384.48 
L 581.147107 51.84 
" clip-path="url(#p9a30205e4f)" style="fill: none; stroke: #b0b0b0; stroke-width: 0.8; stroke-linecap: square"/>
     </g>
     <g id="line2d_18">
      <g>
       <use xlink:href="#m119faa782e" x="581.147107" y="384.48" style="stroke: #000000; stroke-width: 0.8"/>
      </g>
     </g>
     <g id="text_9">
      <!-- 5_100 -->
      <g transform="translate(572.171823 418.25946) rotate(-45) scale(0.1 -0.1)">
       <defs>
        <path id="DejaVuSans-35" d="M 691 4666 
L 3169 4666 
L 3169 4134 
L 1269 4134 
L 1269 2991 
Q 1406 3038 1543 3061 
Q 1681 3084 1819 3084 
Q 2600 3084 3056 2656 
Q 3513 2228 3513 1497 
Q 3513 744 3044 326 
Q 2575 -91 1722 -91 
Q 1428 -91 1123 -41 
Q 819 9 494 109 
L 494 744 
Q 775 591 1075 516 
Q 1375 441 1709 441 
Q 2250 441 2565 725 
Q 2881 1009 2881 1497 
Q 2881 1984 2565 2268 
Q 2250 2553 1709 2553 
Q 1456 2553 1204 2497 
Q 953 2441 691 2322 
L 691 4666 
z
" transform="scale(0.015625)"/>
       </defs>
       <use xlink:href="#DejaVuSans-35"/>
       <use xlink:href="#DejaVuSans-5f" x="63.623047"/>
       <use xlink:href="#DejaVuSans-31" x="113.623047"/>
       <use xlink:href="#DejaVuSans-30" x="177.246094"/>
       <use xlink:href="#DejaVuSans-30" x="240.869141"/>
      </g>
     </g>
    </g>
    <g id="xtick_10">
     <g id="line2d_19">
      <path d="M 636.48595 384.48 
L 636.48595 51.84 
" clip-path="url(#p9a30205e4f)" style="fill: none; stroke: #b0b0b0; stroke-width: 0.8; stroke-linecap: square"/>
     </g>
     <g id="line2d_20">
      <g>
       <use xlink:href="#m119faa782e" x="636.48595" y="384.48" style="stroke: #000000; stroke-width: 0.8"/>
      </g>
     </g>
     <g id="text_10">
      <!-- 5_200 -->
      <g transform="translate(627.510666 418.25946) rotate(-45) scale(0.1 -0.1)">
       <use xlink:href="#DejaVuSans-35"/>
       <use xlink:href="#DejaVuSans-5f" x="63.623047"/>
       <use xlink:href="#DejaVuSans-32" x="113.623047"/>
       <use xlink:href="#DejaVuSans-30" x="177.246094"/>
       <use xlink:href="#DejaVuSans-30" x="240.869141"/>
      </g>
     </g>
    </g>
    <g id="xtick_11">
     <g id="line2d_21">
      <path d="M 691.824793 384.48 
L 691.824793 51.84 
" clip-path="url(#p9a30205e4f)" style="fill: none; stroke: #b0b0b0; stroke-width: 0.8; stroke-linecap: square"/>
     </g>
     <g id="line2d_22">
      <g>
       <use xlink:href="#m119faa782e" x="691.824793" y="384.48" style="stroke: #000000; stroke-width: 0.8"/>
      </g>
     </g>
     <g id="text_11">
      <!-- 6_100 -->
      <g transform="translate(682.849509 418.25946) rotate(-45) scale(0.1 -0.1)">
       <defs>
        <path id="DejaVuSans-36" d="M 2113 2584 
Q 1688 2584 1439 2293 
Q 1191 2003 1191 1497 
Q 1191 994 1439 701 
Q 1688 409 2113 409 
Q 2538 409 2786 701 
Q 3034 994 3034 1497 
Q 3034 2003 2786 2293 
Q 2538 2584 2113 2584 
z
M 3366 4563 
L 3366 3988 
Q 3128 4100 2886 4159 
Q 2644 4219 2406 4219 
Q 1781 4219 1451 3797 
Q 1122 3375 1075 2522 
Q 1259 2794 1537 2939 
Q 1816 3084 2150 3084 
Q 2853 3084 3261 2657 
Q 3669 2231 3669 1497 
Q 3669 778 3244 343 
Q 2819 -91 2113 -91 
Q 1303 -91 875 529 
Q 447 1150 447 2328 
Q 447 3434 972 4092 
Q 1497 4750 2381 4750 
Q 2619 4750 2861 4703 
Q 3103 4656 3366 4563 
z
" transform="scale(0.015625)"/>
       </defs>
       <use xlink:href="#DejaVuSans-36"/>
       <use xlink:href="#DejaVuSans-5f" x="63.623047"/>
       <use xlink:href="#DejaVuSans-31" x="113.623047"/>
       <use xlink:href="#DejaVuSans-30" x="177.246094"/>
       <use xlink:href="#DejaVuSans-30" x="240.869141"/>
      </g>
     </g>
    </g>
    <g id="xtick_12">
     <g id="line2d_23">
      <path d="M 747.163636 384.48 
L 747.163636 51.84 
" clip-path="url(#p9a30205e4f)" style="fill: none; stroke: #b0b0b0; stroke-width: 0.8; stroke-linecap: square"/>
     </g>
     <g id="line2d_24">
      <g>
       <use xlink:href="#m119faa782e" x="747.163636" y="384.48" style="stroke: #000000; stroke-width: 0.8"/>
      </g>
     </g>
     <g id="text_12">
      <!-- 6_200 -->
      <g transform="translate(738.188352 418.25946) rotate(-45) scale(0.1 -0.1)">
       <use xlink:href="#DejaVuSans-36"/>
       <use xlink:href="#DejaVuSans-5f" x="63.623047"/>
       <use xlink:href="#DejaVuSans-32" x="113.623047"/>
       <use xlink:href="#DejaVuSans-30" x="177.246094"/>
       <use xlink:href="#DejaVuSans-30" x="240.869141"/>
      </g>
     </g>
    </g>
    <g id="text_13">
     <!-- Pattern_Iteration -->
     <g transform="translate(401.103906 431.525122) scale(0.1 -0.1)">
      <defs>
       <path id="DejaVuSans-50" d="M 1259 4147 
L 1259 2394 
L 2053 2394 
Q 2494 2394 2734 2622 
Q 2975 2850 2975 3272 
Q 2975 3691 2734 3919 
Q 2494 4147 2053 4147 
L 1259 4147 
z
M 628 4666 
L 2053 4666 
Q 2838 4666 3239 4311 
Q 3641 3956 3641 3272 
Q 3641 2581 3239 2228 
Q 2838 1875 2053 1875 
L 1259 1875 
L 1259 0 
L 628 0 
L 628 4666 
z
" transform="scale(0.015625)"/>
       <path id="DejaVuSans-61" d="M 2194 1759 
Q 1497 1759 1228 1600 
Q 959 1441 959 1056 
Q 959 750 1161 570 
Q 1363 391 1709 391 
Q 2188 391 2477 730 
Q 2766 1069 2766 1631 
L 2766 1759 
L 2194 1759 
z
M 3341 1997 
L 3341 0 
L 2766 0 
L 2766 531 
Q 2569 213 2275 61 
Q 1981 -91 1556 -91 
Q 1019 -91 701 211 
Q 384 513 384 1019 
Q 384 1609 779 1909 
Q 1175 2209 1959 2209 
L 2766 2209 
L 2766 2266 
Q 2766 2663 2505 2880 
Q 2244 3097 1772 3097 
Q 1472 3097 1187 3025 
Q 903 2953 641 2809 
L 641 3341 
Q 956 3463 1253 3523 
Q 1550 3584 1831 3584 
Q 2591 3584 2966 3190 
Q 3341 2797 3341 1997 
z
" transform="scale(0.015625)"/>
       <path id="DejaVuSans-74" d="M 1172 4494 
L 1172 3500 
L 2356 3500 
L 2356 3053 
L 1172 3053 
L 1172 1153 
Q 1172 725 1289 603 
Q 1406 481 1766 481 
L 2356 481 
L 2356 0 
L 1766 0 
Q 1100 0 847 248 
Q 594 497 594 1153 
L 594 3053 
L 172 3053 
L 172 3500 
L 594 3500 
L 594 4494 
L 1172 4494 
z
" transform="scale(0.015625)"/>
       <path id="DejaVuSans-65" d="M 3597 1894 
L 3597 1613 
L 953 1613 
Q 991 1019 1311 708 
Q 1631 397 2203 397 
Q 2534 397 2845 478 
Q 3156 559 3463 722 
L 3463 178 
Q 3153 47 2828 -22 
Q 2503 -91 2169 -91 
Q 1331 -91 842 396 
Q 353 884 353 1716 
Q 353 2575 817 3079 
Q 1281 3584 2069 3584 
Q 2775 3584 3186 3129 
Q 3597 2675 3597 1894 
z
M 3022 2063 
Q 3016 2534 2758 2815 
Q 2500 3097 2075 3097 
Q 1594 3097 1305 2825 
Q 1016 2553 972 2059 
L 3022 2063 
z
" transform="scale(0.015625)"/>
       <path id="DejaVuSans-72" d="M 2631 2963 
Q 2534 3019 2420 3045 
Q 2306 3072 2169 3072 
Q 1681 3072 1420 2755 
Q 1159 2438 1159 1844 
L 1159 0 
L 581 0 
L 581 3500 
L 1159 3500 
L 1159 2956 
Q 1341 3275 1631 3429 
Q 1922 3584 2338 3584 
Q 2397 3584 2469 3576 
Q 2541 3569 2628 3553 
L 2631 2963 
z
" transform="scale(0.015625)"/>
       <path id="DejaVuSans-6e" d="M 3513 2113 
L 3513 0 
L 2938 0 
L 2938 2094 
Q 2938 2591 2744 2837 
Q 2550 3084 2163 3084 
Q 1697 3084 1428 2787 
Q 1159 2491 1159 1978 
L 1159 0 
L 581 0 
L 581 3500 
L 1159 3500 
L 1159 2956 
Q 1366 3272 1645 3428 
Q 1925 3584 2291 3584 
Q 2894 3584 3203 3211 
Q 3513 2838 3513 2113 
z
" transform="scale(0.015625)"/>
       <path id="DejaVuSans-49" d="M 628 4666 
L 1259 4666 
L 1259 0 
L 628 0 
L 628 4666 
z
" transform="scale(0.015625)"/>
       <path id="DejaVuSans-69" d="M 603 3500 
L 1178 3500 
L 1178 0 
L 603 0 
L 603 3500 
z
M 603 4863 
L 1178 4863 
L 1178 4134 
L 603 4134 
L 603 4863 
z
" transform="scale(0.015625)"/>
       <path id="DejaVuSans-6f" d="M 1959 3097 
Q 1497 3097 1228 2736 
Q 959 2375 959 1747 
Q 959 1119 1226 758 
Q 1494 397 1959 397 
Q 2419 397 2687 759 
Q 2956 1122 2956 1747 
Q 2956 2369 2687 2733 
Q 2419 3097 1959 3097 
z
M 1959 3584 
Q 2709 3584 3137 3096 
Q 3566 2609 3566 1747 
Q 3566 888 3137 398 
Q 2709 -91 1959 -91 
Q 1206 -91 779 398 
Q 353 888 353 1747 
Q 353 2609 779 3096 
Q 1206 3584 1959 3584 
z
" transform="scale(0.015625)"/>
      </defs>
      <use xlink:href="#DejaVuSans-50"/>
      <use xlink:href="#DejaVuSans-61" x="55.802734"/>
      <use xlink:href="#DejaVuSans-74" x="117.082031"/>
      <use xlink:href="#DejaVuSans-74" x="156.291016"/>
      <use xlink:href="#DejaVuSans-65" x="195.5"/>
      <use xlink:href="#DejaVuSans-72" x="257.023438"/>
      <use xlink:href="#DejaVuSans-6e" x="296.386719"/>
      <use xlink:href="#DejaVuSans-5f" x="359.765625"/>
      <use xlink:href="#DejaVuSans-49" x="409.765625"/>
      <use xlink:href="#DejaVuSans-74" x="439.257812"/>
      <use xlink:href="#DejaVuSans-65" x="478.466797"/>
      <use xlink:href="#DejaVuSans-72" x="539.990234"/>
      <use xlink:href="#DejaVuSans-61" x="581.103516"/>
      <use xlink:href="#DejaVuSans-74" x="642.382812"/>
      <use xlink:href="#DejaVuSans-69" x="681.591797"/>
      <use xlink:href="#DejaVuSans-6f" x="709.375"/>
      <use xlink:href="#DejaVuSans-6e" x="770.556641"/>
     </g>
    </g>
   </g>
   <g id="matplotlib.axis_2">
    <g id="ytick_1">
     <g id="line2d_25">
      <path d="M 108 368.283012 
L 777.6 368.283012 
" clip-path="url(#p9a30205e4f)" style="fill: none; stroke: #b0b0b0; stroke-width: 0.8; stroke-linecap: square"/>
     </g>
     <g id="line2d_26">
      <defs>
       <path id="m3bcc7b922a" d="M 0 0 
L -3.5 0 
" style="stroke: #000000; stroke-width: 0.8"/>
      </defs>
      <g>
       <use xlink:href="#m3bcc7b922a" x="108" y="368.283012" style="stroke: #000000; stroke-width: 0.8"/>
      </g>
     </g>
     <g id="text_14">
      <!-- 0 -->
      <g transform="translate(94.6375 372.082231) scale(0.1 -0.1)">
       <use xlink:href="#DejaVuSans-30"/>
      </g>
     </g>
    </g>
    <g id="ytick_2">
     <g id="line2d_27">
      <path d="M 108 324.147239 
L 777.6 324.147239 
" clip-path="url(#p9a30205e4f)" style="fill: none; stroke: #b0b0b0; stroke-width: 0.8; stroke-linecap: square"/>
     </g>
     <g id="line2d_28">
      <g>
       <use xlink:href="#m3bcc7b922a" x="108" y="324.147239" style="stroke: #000000; stroke-width: 0.8"/>
      </g>
     </g>
     <g id="text_15">
      <!-- 20 -->
      <g transform="translate(88.275 327.946458) scale(0.1 -0.1)">
       <use xlink:href="#DejaVuSans-32"/>
       <use xlink:href="#DejaVuSans-30" x="63.623047"/>
      </g>
     </g>
    </g>
    <g id="ytick_3">
     <g id="line2d_29">
      <path d="M 108 280.011466 
L 777.6 280.011466 
" clip-path="url(#p9a30205e4f)" style="fill: none; stroke: #b0b0b0; stroke-width: 0.8; stroke-linecap: square"/>
     </g>
     <g id="line2d_30">
      <g>
       <use xlink:href="#m3bcc7b922a" x="108" y="280.011466" style="stroke: #000000; stroke-width: 0.8"/>
      </g>
     </g>
     <g id="text_16">
      <!-- 40 -->
      <g transform="translate(88.275 283.810685) scale(0.1 -0.1)">
       <use xlink:href="#DejaVuSans-34"/>
       <use xlink:href="#DejaVuSans-30" x="63.623047"/>
      </g>
     </g>
    </g>
    <g id="ytick_4">
     <g id="line2d_31">
      <path d="M 108 235.875693 
L 777.6 235.875693 
" clip-path="url(#p9a30205e4f)" style="fill: none; stroke: #b0b0b0; stroke-width: 0.8; stroke-linecap: square"/>
     </g>
     <g id="line2d_32">
      <g>
       <use xlink:href="#m3bcc7b922a" x="108" y="235.875693" style="stroke: #000000; stroke-width: 0.8"/>
      </g>
     </g>
     <g id="text_17">
      <!-- 60 -->
      <g transform="translate(88.275 239.674912) scale(0.1 -0.1)">
       <use xlink:href="#DejaVuSans-36"/>
       <use xlink:href="#DejaVuSans-30" x="63.623047"/>
      </g>
     </g>
    </g>
    <g id="ytick_5">
     <g id="line2d_33">
      <path d="M 108 191.73992 
L 777.6 191.73992 
" clip-path="url(#p9a30205e4f)" style="fill: none; stroke: #b0b0b0; stroke-width: 0.8; stroke-linecap: square"/>
     </g>
     <g id="line2d_34">
      <g>
       <use xlink:href="#m3bcc7b922a" x="108" y="191.73992" style="stroke: #000000; stroke-width: 0.8"/>
      </g>
     </g>
     <g id="text_18">
      <!-- 80 -->
      <g transform="translate(88.275 195.539139) scale(0.1 -0.1)">
       <defs>
        <path id="DejaVuSans-38" d="M 2034 2216 
Q 1584 2216 1326 1975 
Q 1069 1734 1069 1313 
Q 1069 891 1326 650 
Q 1584 409 2034 409 
Q 2484 409 2743 651 
Q 3003 894 3003 1313 
Q 3003 1734 2745 1975 
Q 2488 2216 2034 2216 
z
M 1403 2484 
Q 997 2584 770 2862 
Q 544 3141 544 3541 
Q 544 4100 942 4425 
Q 1341 4750 2034 4750 
Q 2731 4750 3128 4425 
Q 3525 4100 3525 3541 
Q 3525 3141 3298 2862 
Q 3072 2584 2669 2484 
Q 3125 2378 3379 2068 
Q 3634 1759 3634 1313 
Q 3634 634 3220 271 
Q 2806 -91 2034 -91 
Q 1263 -91 848 271 
Q 434 634 434 1313 
Q 434 1759 690 2068 
Q 947 2378 1403 2484 
z
M 1172 3481 
Q 1172 3119 1398 2916 
Q 1625 2713 2034 2713 
Q 2441 2713 2670 2916 
Q 2900 3119 2900 3481 
Q 2900 3844 2670 4047 
Q 2441 4250 2034 4250 
Q 1625 4250 1398 4047 
Q 1172 3844 1172 3481 
z
" transform="scale(0.015625)"/>
       </defs>
       <use xlink:href="#DejaVuSans-38"/>
       <use xlink:href="#DejaVuSans-30" x="63.623047"/>
      </g>
     </g>
    </g>
    <g id="ytick_6">
     <g id="line2d_35">
      <path d="M 108 147.604147 
L 777.6 147.604147 
" clip-path="url(#p9a30205e4f)" style="fill: none; stroke: #b0b0b0; stroke-width: 0.8; stroke-linecap: square"/>
     </g>
     <g id="line2d_36">
      <g>
       <use xlink:href="#m3bcc7b922a" x="108" y="147.604147" style="stroke: #000000; stroke-width: 0.8"/>
      </g>
     </g>
     <g id="text_19">
      <!-- 100 -->
      <g transform="translate(81.9125 151.403366) scale(0.1 -0.1)">
       <use xlink:href="#DejaVuSans-31"/>
       <use xlink:href="#DejaVuSans-30" x="63.623047"/>
       <use xlink:href="#DejaVuSans-30" x="127.246094"/>
      </g>
     </g>
    </g>
    <g id="ytick_7">
     <g id="line2d_37">
      <path d="M 108 103.468374 
L 777.6 103.468374 
" clip-path="url(#p9a30205e4f)" style="fill: none; stroke: #b0b0b0; stroke-width: 0.8; stroke-linecap: square"/>
     </g>
     <g id="line2d_38">
      <g>
       <use xlink:href="#m3bcc7b922a" x="108" y="103.468374" style="stroke: #000000; stroke-width: 0.8"/>
      </g>
     </g>
     <g id="text_20">
      <!-- 120 -->
      <g transform="translate(81.9125 107.267593) scale(0.1 -0.1)">
       <use xlink:href="#DejaVuSans-31"/>
       <use xlink:href="#DejaVuSans-32" x="63.623047"/>
       <use xlink:href="#DejaVuSans-30" x="127.246094"/>
      </g>
     </g>
    </g>
    <g id="ytick_8">
     <g id="line2d_39">
      <path d="M 108 59.332601 
L 777.6 59.332601 
" clip-path="url(#p9a30205e4f)" style="fill: none; stroke: #b0b0b0; stroke-width: 0.8; stroke-linecap: square"/>
     </g>
     <g id="line2d_40">
      <g>
       <use xlink:href="#m3bcc7b922a" x="108" y="59.332601" style="stroke: #000000; stroke-width: 0.8"/>
      </g>
     </g>
     <g id="text_21">
      <!-- 140 -->
      <g transform="translate(81.9125 63.13182) scale(0.1 -0.1)">
       <use xlink:href="#DejaVuSans-31"/>
       <use xlink:href="#DejaVuSans-34" x="63.623047"/>
       <use xlink:href="#DejaVuSans-30" x="127.246094"/>
      </g>
     </g>
    </g>
    <g id="text_22">
     <!-- Wating Time -->
     <g transform="translate(75.832812 249.363906) rotate(-90) scale(0.1 -0.1)">
      <defs>
       <path id="DejaVuSans-57" d="M 213 4666 
L 850 4666 
L 1831 722 
L 2809 4666 
L 3519 4666 
L 4500 722 
L 5478 4666 
L 6119 4666 
L 4947 0 
L 4153 0 
L 3169 4050 
L 2175 0 
L 1381 0 
L 213 4666 
z
" transform="scale(0.015625)"/>
       <path id="DejaVuSans-67" d="M 2906 1791 
Q 2906 2416 2648 2759 
Q 2391 3103 1925 3103 
Q 1463 3103 1205 2759 
Q 947 2416 947 1791 
Q 947 1169 1205 825 
Q 1463 481 1925 481 
Q 2391 481 2648 825 
Q 2906 1169 2906 1791 
z
M 3481 434 
Q 3481 -459 3084 -895 
Q 2688 -1331 1869 -1331 
Q 1566 -1331 1297 -1286 
Q 1028 -1241 775 -1147 
L 775 -588 
Q 1028 -725 1275 -790 
Q 1522 -856 1778 -856 
Q 2344 -856 2625 -561 
Q 2906 -266 2906 331 
L 2906 616 
Q 2728 306 2450 153 
Q 2172 0 1784 0 
Q 1141 0 747 490 
Q 353 981 353 1791 
Q 353 2603 747 3093 
Q 1141 3584 1784 3584 
Q 2172 3584 2450 3431 
Q 2728 3278 2906 2969 
L 2906 3500 
L 3481 3500 
L 3481 434 
z
" transform="scale(0.015625)"/>
       <path id="DejaVuSans-20" transform="scale(0.015625)"/>
       <path id="DejaVuSans-54" d="M -19 4666 
L 3928 4666 
L 3928 4134 
L 2272 4134 
L 2272 0 
L 1638 0 
L 1638 4134 
L -19 4134 
L -19 4666 
z
" transform="scale(0.015625)"/>
       <path id="DejaVuSans-6d" d="M 3328 2828 
Q 3544 3216 3844 3400 
Q 4144 3584 4550 3584 
Q 5097 3584 5394 3201 
Q 5691 2819 5691 2113 
L 5691 0 
L 5113 0 
L 5113 2094 
Q 5113 2597 4934 2840 
Q 4756 3084 4391 3084 
Q 3944 3084 3684 2787 
Q 3425 2491 3425 1978 
L 3425 0 
L 2847 0 
L 2847 2094 
Q 2847 2600 2669 2842 
Q 2491 3084 2119 3084 
Q 1678 3084 1418 2786 
Q 1159 2488 1159 1978 
L 1159 0 
L 581 0 
L 581 3500 
L 1159 3500 
L 1159 2956 
Q 1356 3278 1631 3431 
Q 1906 3584 2284 3584 
Q 2666 3584 2933 3390 
Q 3200 3197 3328 2828 
z
" transform="scale(0.015625)"/>
      </defs>
      <use xlink:href="#DejaVuSans-57"/>
      <use xlink:href="#DejaVuSans-61" x="92.501953"/>
      <use xlink:href="#DejaVuSans-74" x="153.78125"/>
      <use xlink:href="#DejaVuSans-69" x="192.990234"/>
      <use xlink:href="#DejaVuSans-6e" x="220.773438"/>
      <use xlink:href="#DejaVuSans-67" x="284.152344"/>
      <use xlink:href="#DejaVuSans-20" x="347.628906"/>
      <use xlink:href="#DejaVuSans-54" x="379.416016"/>
      <use xlink:href="#DejaVuSans-69" x="437.375"/>
      <use xlink:href="#DejaVuSans-6d" x="465.158203"/>
      <use xlink:href="#DejaVuSans-65" x="562.570312"/>
     </g>
    </g>
   </g>
   <g id="LineCollection_1">
    <path d="M 138.436364 368.741569 
L 138.436364 367.383098 
" clip-path="url(#p9a30205e4f)" style="fill: none; stroke: #ffa500; stroke-width: 1.5"/>
    <path d="M 193.775207 368.760446 
L 193.775207 367.143542 
" clip-path="url(#p9a30205e4f)" style="fill: none; stroke: #ffa500; stroke-width: 1.5"/>
    <path d="M 249.11405 368.760883 
L 249.11405 364.494959 
" clip-path="url(#p9a30205e4f)" style="fill: none; stroke: #ffa500; stroke-width: 1.5"/>
    <path d="M 304.452893 369.111834 
L 304.452893 365.468081 
" clip-path="url(#p9a30205e4f)" style="fill: none; stroke: #ffa500; stroke-width: 1.5"/>
    <path d="M 359.791736 355.462418 
L 359.791736 319.589373 
" clip-path="url(#p9a30205e4f)" style="fill: none; stroke: #ffa500; stroke-width: 1.5"/>
    <path d="M 415.130579 363.042029 
L 415.130579 324.277765 
" clip-path="url(#p9a30205e4f)" style="fill: none; stroke: #ffa500; stroke-width: 1.5"/>
    <path d="M 470.469421 247.695933 
L 470.469421 162.265371 
" clip-path="url(#p9a30205e4f)" style="fill: none; stroke: #ffa500; stroke-width: 1.5"/>
    <path d="M 525.808264 222.731323 
L 525.808264 66.96 
" clip-path="url(#p9a30205e4f)" style="fill: none; stroke: #ffa500; stroke-width: 1.5"/>
    <path d="M 581.147107 221.787465 
L 581.147107 132.452427 
" clip-path="url(#p9a30205e4f)" style="fill: none; stroke: #ffa500; stroke-width: 1.5"/>
    <path d="M 636.48595 211.382495 
L 636.48595 121.943058 
" clip-path="url(#p9a30205e4f)" style="fill: none; stroke: #ffa500; stroke-width: 1.5"/>
    <path d="M 691.824793 368.548595 
L 691.824793 362.426899 
" clip-path="url(#p9a30205e4f)" style="fill: none; stroke: #ffa500; stroke-width: 1.5"/>
    <path d="M 747.163636 369.36 
L 747.163636 364.26364 
" clip-path="url(#p9a30205e4f)" style="fill: none; stroke: #ffa500; stroke-width: 1.5"/>
   </g>
   <g id="line2d_41">
    <defs>
     <path id="m1c48e5decb" d="M 5 0 
L -5 -0 
" style="stroke: #ffa500"/>
    </defs>
    <g clip-path="url(#p9a30205e4f)">
     <use xlink:href="#m1c48e5decb" x="138.436364" y="368.741569" style="fill: #ffa500; stroke: #ffa500"/>
     <use xlink:href="#m1c48e5decb" x="193.775207" y="368.760446" style="fill: #ffa500; stroke: #ffa500"/>
     <use xlink:href="#m1c48e5decb" x="249.11405" y="368.760883" style="fill: #ffa500; stroke: #ffa500"/>
     <use xlink:href="#m1c48e5decb" x="304.452893" y="369.111834" style="fill: #ffa500; stroke: #ffa500"/>
     <use xlink:href="#m1c48e5decb" x="359.791736" y="355.462418" style="fill: #ffa500; stroke: #ffa500"/>
     <use xlink:href="#m1c48e5decb" x="415.130579" y="363.042029" style="fill: #ffa500; stroke: #ffa500"/>
     <use xlink:href="#m1c48e5decb" x="470.469421" y="247.695933" style="fill: #ffa500; stroke: #ffa500"/>
     <use xlink:href="#m1c48e5decb" x="525.808264" y="222.731323" style="fill: #ffa500; stroke: #ffa500"/>
     <use xlink:href="#m1c48e5decb" x="581.147107" y="221.787465" style="fill: #ffa500; stroke: #ffa500"/>
     <use xlink:href="#m1c48e5decb" x="636.48595" y="211.382495" style="fill: #ffa500; stroke: #ffa500"/>
     <use xlink:href="#m1c48e5decb" x="691.824793" y="368.548595" style="fill: #ffa500; stroke: #ffa500"/>
     <use xlink:href="#m1c48e5decb" x="747.163636" y="369.36" style="fill: #ffa500; stroke: #ffa500"/>
    </g>
   </g>
   <g id="line2d_42">
    <g clip-path="url(#p9a30205e4f)">
     <use xlink:href="#m1c48e5decb" x="138.436364" y="367.383098" style="fill: #ffa500; stroke: #ffa500"/>
     <use xlink:href="#m1c48e5decb" x="193.775207" y="367.143542" style="fill: #ffa500; stroke: #ffa500"/>
     <use xlink:href="#m1c48e5decb" x="249.11405" y="364.494959" style="fill: #ffa500; stroke: #ffa500"/>
     <use xlink:href="#m1c48e5decb" x="304.452893" y="365.468081" style="fill: #ffa500; stroke: #ffa500"/>
     <use xlink:href="#m1c48e5decb" x="359.791736" y="319.589373" style="fill: #ffa500; stroke: #ffa500"/>
     <use xlink:href="#m1c48e5decb" x="415.130579" y="324.277765" style="fill: #ffa500; stroke: #ffa500"/>
     <use xlink:href="#m1c48e5decb" x="470.469421" y="162.265371" style="fill: #ffa500; stroke: #ffa500"/>
     <use xlink:href="#m1c48e5decb" x="525.808264" y="66.96" style="fill: #ffa500; stroke: #ffa500"/>
     <use xlink:href="#m1c48e5decb" x="581.147107" y="132.452427" style="fill: #ffa500; stroke: #ffa500"/>
     <use xlink:href="#m1c48e5decb" x="636.48595" y="121.943058" style="fill: #ffa500; stroke: #ffa500"/>
     <use xlink:href="#m1c48e5decb" x="691.824793" y="362.426899" style="fill: #ffa500; stroke: #ffa500"/>
     <use xlink:href="#m1c48e5decb" x="747.163636" y="364.26364" style="fill: #ffa500; stroke: #ffa500"/>
    </g>
   </g>
   <g id="line2d_43">
    <path d="M 138.436364 368.062334 
L 193.775207 367.951994 
L 249.11405 366.627921 
L 304.452893 367.289957 
L 359.791736 337.525896 
L 415.130579 343.659897 
L 470.469421 204.980652 
L 525.808264 144.845661 
L 581.147107 177.119946 
L 636.48595 166.662777 
L 691.824793 365.487747 
L 747.163636 366.81182 
" clip-path="url(#p9a30205e4f)" style="fill: none; stroke: #ffa500; stroke-width: 1.5; stroke-linecap: square"/>
    <defs>
     <path id="m361d20421a" d="M 0 3 
C 0.795609 3 1.55874 2.683901 2.12132 2.12132 
C 2.683901 1.55874 3 0.795609 3 0 
C 3 -0.795609 2.683901 -1.55874 2.12132 -2.12132 
C 1.55874 -2.683901 0.795609 -3 0 -3 
C -0.795609 -3 -1.55874 -2.683901 -2.12132 -2.12132 
C -2.683901 -1.55874 -3 -0.795609 -3 0 
C -3 0.795609 -2.683901 1.55874 -2.12132 2.12132 
C -1.55874 2.683901 -0.795609 3 0 3 
z
" style="stroke: #ffa500"/>
    </defs>
    <g clip-path="url(#p9a30205e4f)">
     <use xlink:href="#m361d20421a" x="138.436364" y="368.062334" style="fill: #ffa500; stroke: #ffa500"/>
     <use xlink:href="#m361d20421a" x="193.775207" y="367.951994" style="fill: #ffa500; stroke: #ffa500"/>
     <use xlink:href="#m361d20421a" x="249.11405" y="366.627921" style="fill: #ffa500; stroke: #ffa500"/>
     <use xlink:href="#m361d20421a" x="304.452893" y="367.289957" style="fill: #ffa500; stroke: #ffa500"/>
     <use xlink:href="#m361d20421a" x="359.791736" y="337.525896" style="fill: #ffa500; stroke: #ffa500"/>
     <use xlink:href="#m361d20421a" x="415.130579" y="343.659897" style="fill: #ffa500; stroke: #ffa500"/>
     <use xlink:href="#m361d20421a" x="470.469421" y="204.980652" style="fill: #ffa500; stroke: #ffa500"/>
     <use xlink:href="#m361d20421a" x="525.808264" y="144.845661" style="fill: #ffa500; stroke: #ffa500"/>
     <use xlink:href="#m361d20421a" x="581.147107" y="177.119946" style="fill: #ffa500; stroke: #ffa500"/>
     <use xlink:href="#m361d20421a" x="636.48595" y="166.662777" style="fill: #ffa500; stroke: #ffa500"/>
     <use xlink:href="#m361d20421a" x="691.824793" y="365.487747" style="fill: #ffa500; stroke: #ffa500"/>
     <use xlink:href="#m361d20421a" x="747.163636" y="366.81182" style="fill: #ffa500; stroke: #ffa500"/>
    </g>
   </g>
   <g id="patch_3">
    <path d="M 108 384.48 
L 108 51.84 
" style="fill: none; stroke: #000000; stroke-width: 0.8; stroke-linejoin: miter; stroke-linecap: square"/>
   </g>
   <g id="patch_4">
    <path d="M 777.6 384.48 
L 777.6 51.84 
" style="fill: none; stroke: #000000; stroke-width: 0.8; stroke-linejoin: miter; stroke-linecap: square"/>
   </g>
   <g id="patch_5">
    <path d="M 108 384.48 
L 777.6 384.48 
" style="fill: none; stroke: #000000; stroke-width: 0.8; stroke-linejoin: miter; stroke-linecap: square"/>
   </g>
   <g id="patch_6">
    <path d="M 108 51.84 
L 777.6 51.84 
" style="fill: none; stroke: #000000; stroke-width: 0.8; stroke-linejoin: miter; stroke-linecap: square"/>
   </g>
   <g id="text_23">
    <!-- Average and Variance of Wating Time by Pattern and Iteration -->
    <g transform="translate(256.785 45.84) scale(0.12 -0.12)">
     <defs>
      <path id="DejaVuSans-41" d="M 2188 4044 
L 1331 1722 
L 3047 1722 
L 2188 4044 
z
M 1831 4666 
L 2547 4666 
L 4325 0 
L 3669 0 
L 3244 1197 
L 1141 1197 
L 716 0 
L 50 0 
L 1831 4666 
z
" transform="scale(0.015625)"/>
      <path id="DejaVuSans-76" d="M 191 3500 
L 800 3500 
L 1894 563 
L 2988 3500 
L 3597 3500 
L 2284 0 
L 1503 0 
L 191 3500 
z
" transform="scale(0.015625)"/>
      <path id="DejaVuSans-64" d="M 2906 2969 
L 2906 4863 
L 3481 4863 
L 3481 0 
L 2906 0 
L 2906 525 
Q 2725 213 2448 61 
Q 2172 -91 1784 -91 
Q 1150 -91 751 415 
Q 353 922 353 1747 
Q 353 2572 751 3078 
Q 1150 3584 1784 3584 
Q 2172 3584 2448 3432 
Q 2725 3281 2906 2969 
z
M 947 1747 
Q 947 1113 1208 752 
Q 1469 391 1925 391 
Q 2381 391 2643 752 
Q 2906 1113 2906 1747 
Q 2906 2381 2643 2742 
Q 2381 3103 1925 3103 
Q 1469 3103 1208 2742 
Q 947 2381 947 1747 
z
" transform="scale(0.015625)"/>
      <path id="DejaVuSans-56" d="M 1831 0 
L 50 4666 
L 709 4666 
L 2188 738 
L 3669 4666 
L 4325 4666 
L 2547 0 
L 1831 0 
z
" transform="scale(0.015625)"/>
      <path id="DejaVuSans-63" d="M 3122 3366 
L 3122 2828 
Q 2878 2963 2633 3030 
Q 2388 3097 2138 3097 
Q 1578 3097 1268 2742 
Q 959 2388 959 1747 
Q 959 1106 1268 751 
Q 1578 397 2138 397 
Q 2388 397 2633 464 
Q 2878 531 3122 666 
L 3122 134 
Q 2881 22 2623 -34 
Q 2366 -91 2075 -91 
Q 1284 -91 818 406 
Q 353 903 353 1747 
Q 353 2603 823 3093 
Q 1294 3584 2113 3584 
Q 2378 3584 2631 3529 
Q 2884 3475 3122 3366 
z
" transform="scale(0.015625)"/>
      <path id="DejaVuSans-66" d="M 2375 4863 
L 2375 4384 
L 1825 4384 
Q 1516 4384 1395 4259 
Q 1275 4134 1275 3809 
L 1275 3500 
L 2222 3500 
L 2222 3053 
L 1275 3053 
L 1275 0 
L 697 0 
L 697 3053 
L 147 3053 
L 147 3500 
L 697 3500 
L 697 3744 
Q 697 4328 969 4595 
Q 1241 4863 1831 4863 
L 2375 4863 
z
" transform="scale(0.015625)"/>
      <path id="DejaVuSans-62" d="M 3116 1747 
Q 3116 2381 2855 2742 
Q 2594 3103 2138 3103 
Q 1681 3103 1420 2742 
Q 1159 2381 1159 1747 
Q 1159 1113 1420 752 
Q 1681 391 2138 391 
Q 2594 391 2855 752 
Q 3116 1113 3116 1747 
z
M 1159 2969 
Q 1341 3281 1617 3432 
Q 1894 3584 2278 3584 
Q 2916 3584 3314 3078 
Q 3713 2572 3713 1747 
Q 3713 922 3314 415 
Q 2916 -91 2278 -91 
Q 1894 -91 1617 61 
Q 1341 213 1159 525 
L 1159 0 
L 581 0 
L 581 4863 
L 1159 4863 
L 1159 2969 
z
" transform="scale(0.015625)"/>
      <path id="DejaVuSans-79" d="M 2059 -325 
Q 1816 -950 1584 -1140 
Q 1353 -1331 966 -1331 
L 506 -1331 
L 506 -850 
L 844 -850 
Q 1081 -850 1212 -737 
Q 1344 -625 1503 -206 
L 1606 56 
L 191 3500 
L 800 3500 
L 1894 763 
L 2988 3500 
L 3597 3500 
L 2059 -325 
z
" transform="scale(0.015625)"/>
     </defs>
     <use xlink:href="#DejaVuSans-41"/>
     <use xlink:href="#DejaVuSans-76" x="62.533203"/>
     <use xlink:href="#DejaVuSans-65" x="121.712891"/>
     <use xlink:href="#DejaVuSans-72" x="183.236328"/>
     <use xlink:href="#DejaVuSans-61" x="224.349609"/>
     <use xlink:href="#DejaVuSans-67" x="285.628906"/>
     <use xlink:href="#DejaVuSans-65" x="349.105469"/>
     <use xlink:href="#DejaVuSans-20" x="410.628906"/>
     <use xlink:href="#DejaVuSans-61" x="442.416016"/>
     <use xlink:href="#DejaVuSans-6e" x="503.695312"/>
     <use xlink:href="#DejaVuSans-64" x="567.074219"/>
     <use xlink:href="#DejaVuSans-20" x="630.550781"/>
     <use xlink:href="#DejaVuSans-56" x="662.337891"/>
     <use xlink:href="#DejaVuSans-61" x="722.996094"/>
     <use xlink:href="#DejaVuSans-72" x="784.275391"/>
     <use xlink:href="#DejaVuSans-69" x="825.388672"/>
     <use xlink:href="#DejaVuSans-61" x="853.171875"/>
     <use xlink:href="#DejaVuSans-6e" x="914.451172"/>
     <use xlink:href="#DejaVuSans-63" x="977.830078"/>
     <use xlink:href="#DejaVuSans-65" x="1032.810547"/>
     <use xlink:href="#DejaVuSans-20" x="1094.333984"/>
     <use xlink:href="#DejaVuSans-6f" x="1126.121094"/>
     <use xlink:href="#DejaVuSans-66" x="1187.302734"/>
     <use xlink:href="#DejaVuSans-20" x="1222.507812"/>
     <use xlink:href="#DejaVuSans-57" x="1254.294922"/>
     <use xlink:href="#DejaVuSans-61" x="1346.796875"/>
     <use xlink:href="#DejaVuSans-74" x="1408.076172"/>
     <use xlink:href="#DejaVuSans-69" x="1447.285156"/>
     <use xlink:href="#DejaVuSans-6e" x="1475.068359"/>
     <use xlink:href="#DejaVuSans-67" x="1538.447266"/>
     <use xlink:href="#DejaVuSans-20" x="1601.923828"/>
     <use xlink:href="#DejaVuSans-54" x="1633.710938"/>
     <use xlink:href="#DejaVuSans-69" x="1691.669922"/>
     <use xlink:href="#DejaVuSans-6d" x="1719.453125"/>
     <use xlink:href="#DejaVuSans-65" x="1816.865234"/>
     <use xlink:href="#DejaVuSans-20" x="1878.388672"/>
     <use xlink:href="#DejaVuSans-62" x="1910.175781"/>
     <use xlink:href="#DejaVuSans-79" x="1973.652344"/>
     <use xlink:href="#DejaVuSans-20" x="2032.832031"/>
     <use xlink:href="#DejaVuSans-50" x="2064.619141"/>
     <use xlink:href="#DejaVuSans-61" x="2120.421875"/>
     <use xlink:href="#DejaVuSans-74" x="2181.701172"/>
     <use xlink:href="#DejaVuSans-74" x="2220.910156"/>
     <use xlink:href="#DejaVuSans-65" x="2260.119141"/>
     <use xlink:href="#DejaVuSans-72" x="2321.642578"/>
     <use xlink:href="#DejaVuSans-6e" x="2361.005859"/>
     <use xlink:href="#DejaVuSans-20" x="2424.384766"/>
     <use xlink:href="#DejaVuSans-61" x="2456.171875"/>
     <use xlink:href="#DejaVuSans-6e" x="2517.451172"/>
     <use xlink:href="#DejaVuSans-64" x="2580.830078"/>
     <use xlink:href="#DejaVuSans-20" x="2644.306641"/>
     <use xlink:href="#DejaVuSans-49" x="2676.09375"/>
     <use xlink:href="#DejaVuSans-74" x="2705.585938"/>
     <use xlink:href="#DejaVuSans-65" x="2744.794922"/>
     <use xlink:href="#DejaVuSans-72" x="2806.318359"/>
     <use xlink:href="#DejaVuSans-61" x="2847.431641"/>
     <use xlink:href="#DejaVuSans-74" x="2908.710938"/>
     <use xlink:href="#DejaVuSans-69" x="2947.919922"/>
     <use xlink:href="#DejaVuSans-6f" x="2975.703125"/>
     <use xlink:href="#DejaVuSans-6e" x="3036.884766"/>
    </g>
   </g>
   <g id="legend_1">
    <g id="patch_7">
     <path d="M 676.192188 74.518125 
L 770.6 74.518125 
Q 772.6 74.518125 772.6 72.518125 
L 772.6 58.84 
Q 772.6 56.84 770.6 56.84 
L 676.192188 56.84 
Q 674.192188 56.84 674.192188 58.84 
L 674.192188 72.518125 
Q 674.192188 74.518125 676.192188 74.518125 
z
" style="fill: #ffffff; opacity: 0.8; stroke: #cccccc; stroke-linejoin: miter"/>
    </g>
    <g id="LineCollection_2">
     <path d="M 688.192188 69.938438 
L 688.192188 59.938438 
" style="fill: none; stroke: #ffa500; stroke-width: 1.5"/>
    </g>
    <g id="line2d_44">
     <g>
      <use xlink:href="#m1c48e5decb" x="688.192188" y="69.938438" style="fill: #ffa500; stroke: #ffa500"/>
     </g>
    </g>
    <g id="line2d_45">
     <g>
      <use xlink:href="#m1c48e5decb" x="688.192188" y="59.938438" style="fill: #ffa500; stroke: #ffa500"/>
     </g>
    </g>
    <g id="line2d_46">
     <path d="M 678.192188 64.938438 
L 698.192188 64.938438 
" style="fill: none; stroke: #ffa500; stroke-width: 1.5; stroke-linecap: square"/>
    </g>
    <g id="line2d_47">
     <g>
      <use xlink:href="#m361d20421a" x="688.192188" y="64.938438" style="fill: #ffa500; stroke: #ffa500"/>
     </g>
    </g>
    <g id="text_24">
     <!-- Wating Time -->
     <g transform="translate(706.192188 68.438438) scale(0.1 -0.1)">
      <use xlink:href="#DejaVuSans-57"/>
      <use xlink:href="#DejaVuSans-61" x="92.501953"/>
      <use xlink:href="#DejaVuSans-74" x="153.78125"/>
      <use xlink:href="#DejaVuSans-69" x="192.990234"/>
      <use xlink:href="#DejaVuSans-6e" x="220.773438"/>
      <use xlink:href="#DejaVuSans-67" x="284.152344"/>
      <use xlink:href="#DejaVuSans-20" x="347.628906"/>
      <use xlink:href="#DejaVuSans-54" x="379.416016"/>
      <use xlink:href="#DejaVuSans-69" x="437.375"/>
      <use xlink:href="#DejaVuSans-6d" x="465.158203"/>
      <use xlink:href="#DejaVuSans-65" x="562.570312"/>
     </g>
    </g>
   </g>
  </g>
 </g>
 <defs>
  <clipPath id="p9a30205e4f">
   <rect x="108" y="51.84" width="669.6" height="332.64"/>
  </clipPath>
 </defs>
</svg>
